Patient4_TMGait_0pt6_01_right_34_EMG.mot
version=1
nRows=33
nColumns=33
inDegrees=no
endheader
time	1LAddLong	2LGlutMax	3LGlutMed	4LIliopsoas	5LSemiMemb	6LBicFemLong	7LRecFem	8LVastMed	9LVastLat	10LGasMed	11LTibAnt	12lTibPost	13LPeroneusLong	14LSol	15LExtDigLong	16LFlexDigLong	17RAddLong	18RGlutMax	19RGlutMed	20RIliopsoas	21RSemiMemb	22RBicFemLong	23RRecFem	24RVastMed	25RVastLat	26RGasMed	27RTibAnt	28RTibPost	29RPeroneusLong	30RSol	31RExtDigLong	32RFlexDigLong
42.055	0.014343	-0.048065	0.049896	0.011292	-0.018921	0.006866	0.24948	0.002594	0.026398	0.009613	-0.025177	0.003967	-0.25406	-0.078888	-0.016937	-0.001526	-0.046692	-0.00946	-0.11429	0.005035	0.039825	-0.024872	0.005951	-0.044861	0.00473	0.001526	0.45212	-0.00351	-0.26306	-0.083771	0.000916	-0.002289
42.056	0.020599	-0.07843	0.056763	0.006256	-0.02594	-0.003967	0.21622	-0.000763	0.03067	-0.050201	-0.007782	0.005798	-0.10407	0.019989	0.025177	0.003357	-0.06546	0.022736	-0.02243	-0.038147	0.26855	0.020599	0.024719	-0.018005	-0.007019	0.002747	0.41	-0.006256	-0.2121	-0.17288	0.002594	-0.003662
42.057	0.013733	-0.1326	-0.11856	0.021362	0.041962	-0.00412	0.21164	0.010986	0.023193	-0.082703	0.0354	0.005646	0.075073	0.082092	0.044403	0.002136	-0.044556	-0.000763	0.14999	-0.046234	0.20798	-0.030212	-0.014038	-0.036926	0.008087	0.011292	0.43243	-0.005798	-0.14557	-0.1384	-0.002899	-0.007782
42.058	0.011597	-0.12116	-0.077057	0.014954	0.10452	-0.029449	0.2121	0.005646	0.002289	-0.069275	0.002594	0.00412	-0.010986	0.014954	-0.007324	0.004272	-0.016327	0.024719	0.086212	0.02655	-0.10529	0.020447	-0.023956	0.011902	0.018768	-0.000305	0.75882	-0.006256	0.039825	-0.10086	-0.000305	-0.001221
42.059	-0.002899	-0.1445	-0.030365	0.010376	0.08255	-0.046844	0.23254	0.000305	0.006561	-0.063171	-0.046539	0.001831	-0.24124	0.033112	0.049438	0.012665	0.007629	-0.005035	-0.019226	0.11475	-0.16907	0.012817	0.005646	-0.042877	-0.011139	0.001526	0.44342	-0.006104	0.12512	-0.083618	0.00061	-0.013733
42.06	0.005035	-0.14999	-0.035706	0.007629	0.033569	-0.083008	0.21011	0.005493	-0.048676	0.006714	-0.006561	0.000916	0.26993	-0.10162	0.001678	-0.00412	0.010681	-0.02533	-0.085297	0.046844	-0.076904	0.07843	0.007629	-0.030518	-0.006714	-0.008698	0.168	-0.003662	0.070801	-0.036163	0	-0.002289
42.061	0.017548	-0.17777	-0.06012	0.007324	0.007324	-0.087585	0.22171	-0.005646	-0.074158	-0.037537	0.005188	0.000916	0.40192	-0.14328	-0.039368	0.000305	-0.043335	-0.009003	0.015411	-0.050049	-0.024567	0.1561	0.016022	-0.03067	-0.002594	-0.002594	-0.018005	-0.010376	-0.063171	0.0383	-0.002441	-0.005188
42.062	0.020447	-0.17166	0.014648	-0.012665	0.016327	-0.018463	0.23377	0.007019	-0.090942	0.022736	0.002747	-0.000763	0.28976	0.030518	-0.040283	0.006104	-0.068359	-0.049133	-0.049438	-0.11215	-0.062408	0.15045	-0.016174	-0.015411	0.00351	-0.00061	-0.36011	-0.002441	0.13977	-0.005188	-0.001221	-0.004272
42.063	0.02533	-0.13382	0.063324	-0.011292	0.050507	0.075684	0.23514	-0.00061	-0.1033	0.13992	0.017853	0.005646	-0.61691	-0.052795	-0.097809	0.006714	-0.035095	-0.010376	0.0383	-0.056152	0.022583	0.11627	-0.009613	-0.028229	0.007324	-0.001068	-0.49286	-0.003052	0.30182	-0.058441	0.00061	-0.005188
42.064	0.02243	-0.15503	0.039978	0.006409	0.006714	0.10941	0.25803	-0.001221	-0.10956	0.12344	0.023041	0.005341	-0.88303	0.18143	0.018921	0.003967	-0.014954	-0.039215	-0.079956	0.089264	0.22705	-0.043793	-0.021362	-0.041656	0.011902	-0.006409	-0.27466	-0.002899	-0.030518	-0.062561	-0.000916	-0.014648
42.065	0.019989	-0.15991	-0.042572	0.011749	0.000305	0.09201	0.24612	0.002289	-0.029907	0.14847	0.014648	0.007324	0.089264	0.15686	0.030975	0.00885	0.019531	-0.003204	-0.1709	0.1033	0.17273	-0.16937	-0.024567	-0.028076	0.023193	-0.002441	-0.046082	-0.007172	-0.35355	-0.056152	0.002899	-0.004883
42.066	0.01236	-0.13794	-0.062408	0.009155	0.056763	0.016937	0.28351	0.007935	0.067596	0.071106	0.028992	0.011292	0.52612	-0.13001	0.038147	0.010223	0.047607	-0.027924	-0.25375	0.06546	0.092773	-0.20157	0.030365	-0.026398	0.013885	-0.002747	0.18433	-0.004883	-0.25757	-0.053101	0.002136	-0.008392
42.067	0.010529	-0.087128	-0.041656	0.001221	0.080261	-0.026855	0.29159	-0.045166	0.011597	-0.29175	0.038757	0.007782	0.31403	-0.074921	0.021515	-0.000916	0.076599	-0.005951	-0.16113	-0.030518	0.066376	-0.23895	0.027008	-0.05249	0.004272	-0.000458	0.44159	-0.003357	-0.051117	-0.10178	0.002594	-0.012665
42.068	0.012512	-0.070343	0.014801	-0.019836	0.061646	0.029297	0.29511	0.005646	-0.009308	-0.49698	0.018463	0.005341	0.3891	0.020294	0.063019	-0.001984	0.099182	-0.002899	-0.16556	-0.06485	0.042114	-0.20767	0.020599	-0.1152	-0.001526	-0.000458	0.068665	-0.005951	0.03891	-0.10056	-0.002899	-0.000916
42.069	0.011444	-0.056458	0.014038	0.010376	0.019073	0.05188	0.24521	-0.010834	-0.009003	-0.29205	-0.014038	0.005035	-0.074921	0.022888	0.09613	-0.011139	0.051575	-0.03891	-0.14496	-0.063171	-0.069122	0.07843	0.004883	-0.062408	0.00351	0.003815	-0.42129	-0.002747	0.1532	-0.1326	-0.001678	-0.005951
42.07	0.011139	-0.051422	0.038605	0.036469	-0.008698	0.007324	0.18631	-0.000153	-0.019531	-0.015259	-0.007172	0.002899	-0.25986	-0.177	0.035706	-0.010223	0.026703	-0.043488	-0.13092	-0.010986	-0.336	0.13062	0.054016	-0.12116	-0.002289	0.001373	-0.3389	-0.005798	0.14801	-0.048828	-0.000153	0.013275
42.071	0.010529	-0.059814	-0.027618	0.023041	0.018005	-0.095367	0.14938	-0.000916	-0.036926	-0.11002	0.021362	0.005341	-0.49408	-0.069275	-0.031586	0.002136	-0.019989	-0.023804	-0.11688	0.002441	-0.19745	0.049286	0.007172	-0.047607	0.030365	-0.001678	0.10452	-0.003204	0.071564	0.037079	-0.002441	-0.002747
42.072	0.016174	-0.024567	0.014191	0.00351	0.053558	-0.092773	0.068665	0.002136	-0.11047	-0.21316	0.009155	0.006104	-0.26871	0.084686	-0.047455	0.02121	-0.075073	-0.058136	-0.12131	-0.058136	0.10941	0.15182	0.019836	-0.058136	0.015259	-0.001678	0.23224	-0.00473	0.08606	0.10483	-0.002594	-0.001373
42.073	0.016174	-0.025024	0.068054	0.000763	0.02533	-0.059814	0.11902	0.000153	-0.13123	-0.06012	0.02533	0.009155	-0.2179	0.15976	-0.016174	0.00885	-0.080566	-0.10239	-0.092316	-0.074921	0.17151	0.16098	0.030518	-0.046539	-0.000763	-0.000305	0.22079	-0.006561	0.23499	0.13062	0.000458	-0.007629
42.074	0.016937	-0.017242	0.003357	0.010529	0.027618	-0.094452	0.1413	-0.009003	-0.066986	0.083466	0.031586	0.007935	-0.030518	0.18723	-0.032043	-0.053558	-0.060425	-0.060577	-0.11032	0.034943	-0.035248	0.028076	0.028229	-0.037079	0.009308	0.003052	0.086975	-0.003662	0.22186	0.10223	0.000763	0.006561
42.075	0.018768	-0.031433	-0.007629	-0.007629	0.018616	-0.07431	0.10162	-0.000305	-0.044861	-0.13458	-0.017853	-0.002747	0.21774	0.19363	-0.042114	-0.044708	-0.023346	-0.031433	-0.11719	0.09964	-0.083008	0.015106	0.014954	-0.072174	-0.013885	0.003052	-0.38162	-0.002594	0.032959	0.0737	0.000458	0.001678
42.076	0.010376	-0.031433	-0.04425	0.000458	0.018158	-0.020905	0.16602	-0.00061	-0.054321	-0.30746	-0.040283	-0.009155	0.12375	0.06485	-0.033722	0.11902	-0.006714	-0.035858	-0.08255	0.11719	-0.06485	0.027924	0.020447	-0.058899	-0.019531	-0.000458	-0.28656	-0.005341	-0.11231	0.01709	0.003815	0.003204
42.077	0.014038	-0.017395	-0.041351	0.005035	0.018311	-0.013123	0.11002	0.007477	-0.045471	-0.053101	-0.032196	0.00946	0.32044	-0.01709	-0.005341	-0.075226	-0.00473	-0.03006	-0.043793	0.040894	-0.056458	0.041351	0.037537	-0.075989	0.001526	-0.007782	-0.25711	-0.001068	-0.40634	-0.028992	-0.001221	-0.007629
42.078	0.014801	0.005035	-0.056	0.020905	0.017242	0.054626	0.11261	0.00351	-0.057983	0.18723	-0.014191	0.018463	0.32181	-0.18082	-0.019226	-0.066376	0.000916	-0.029449	-0.1001	-0.012665	-0.055695	0.038452	0.03418	-0.081787	-0.013428	-0.008545	-0.085907	-0.00351	0.039063	-0.077972	0.004425	-0.003204
42.079	0.005341	0.01358	-0.095215	-0.00351	-0.010071	0.038147	0.12604	-0.007782	-0.066833	0.11276	-0.008545	0.028076	0.1828	-0.1622	-0.041504	0.289	-0.004883	-0.047302	-0.012817	0.015869	-0.044556	0.051422	0.042572	-0.088501	-0.005951	-0.010071	0.17532	0.003052	0.15137	-0.08255	0.001221	-0.003815
42.08	-0.002594	0.008698	-0.24078	-0.017395	-0.089264	0.010681	0.13351	0.00351	-0.078888	-0.097961	0.01236	0.026093	-0.11917	-0.10346	0.039978	0.051575	0.012512	-0.076599	-0.000763	0.031281	-0.03479	0.03479	0.039368	-0.068054	-0.01236	-0.006561	0.14435	-0.000763	-0.20279	-0.088043	0.010071	0.000153
42.081	-0.00885	0.00412	-0.19943	-0.032654	-0.15717	-0.031281	0.1239	0.00412	-0.075684	-0.001831	0.04837	0.006714	-0.2243	-0.10742	0.031738	-0.14603	0.034943	-0.079498	-0.062408	0.023956	-0.037689	-0.032043	0.045319	-0.090637	-0.012207	-0.004272	0.18112	0.002747	-0.72159	-0.075989	-0.000153	-0.002136
42.082	-0.007019	0.002441	0.058136	0.006714	-0.1561	-0.041046	0.10712	0	-0.082397	0.2536	0.046387	0	-0.23148	-0.024414	-0.043945	-0.089417	0.080719	-0.029297	-0.023651	0.003204	-0.1799	-0.08606	0.028839	-0.12375	-0.018311	-0.000153	0.44128	-0.004883	-0.42877	-0.082703	-0.002136	-0.003052
42.083	-0.003204	0.004425	0.15747	0.051575	-0.018158	-0.031433	0.087738	-0.001678	-0.089722	0.26489	0.035095	0.001984	-0.23132	0.022736	-0.034027	-0.015564	0.07019	0.01236	-0.023651	-0.009155	-0.33341	-0.11536	0.00824	-0.13504	-0.017548	-0.002594	0.32516	-0.006561	-0.11826	-0.056305	-0.000763	-0.004425
42.084	0.023499	0.012054	0.20096	0.013885	0.17761	-0.019531	0.079041	0.000305	-0.1001	0.30792	0.005035	0.011597	-0.28686	0.017242	-0.016327	-0.009918	0.03952	-0.047455	-0.002441	-0.096893	-0.5571	-0.098114	0.036926	-0.11047	-0.002747	-0.011139	0.4657	-0.003052	0.056305	-0.021362	0.002136	-0.008698
42.085	0.018921	0.002136	0.097351	0.013885	0.22659	-0.016327	0.065308	0.001221	-0.10635	-0.15595	-0.006409	0.016327	0.08667	-0.014648	-0.002136	-0.00885	-0.040131	-0.033112	0.072479	-0.15152	0.10666	-0.096436	-0.014954	-0.075378	0.003662	-0.014038	-0.013123	-0.006104	0.38864	-0.075531	-0.003662	-0.002899
42.086	0.014496	-0.005035	-0.038452	0.007019	0.13534	0.0177	0.057831	0.01297	-0.10315	-0.34485	-0.015106	-0.002441	0.61935	0.094604	0.054169	-0.32089	-0.059814	-0.084229	-0.02182	-0.073547	0.10223	0.041656	-0.020142	-0.006561	0.009918	-0.010071	-0.51193	-0.006104	0.31738	-0.12268	-0.00061	-0.000305
42.087	0.007019	-0.047607	-0.19302	-0.00946	0.073547	-0.042877	0.054779	-0.001678	-0.10361	-0.043335	0.005798	0.003357	-0.12451	0.13412	0.026703	-0.10803	-0.07309	-0.066071	-0.061188	0.004883	0.26108	0.035248	-0.028381	-0.002594	0.003662	-0.013885	-0.2887	-0.010376	0.1619	-0.036926	0.000916	-0.00824
